<svg width="48" height="31" viewBox="0 0 48 31" fill="none" xmlns="http://www.w3.org/2000/svg">
<path d="M47.2 15.4L40.7 7.2C40.4 6.8 40 6.6 39.5 6.6H31.2V1.5C31.2 0.7 30.5 0 29.7 0H2C1.2 0 0.5 0.7 0.5 1.5C0.5 2.3 1.2 3 2 3H28.2V24.7H16.3C15.7 22.8 13.9 21.4 11.8 21.4C9.2 21.4 7 23.6 7 26.2C7 28.8 9.2 31 11.8 31C13.9 31 15.7 29.6 16.3 27.7H29.7C30.5 27.7 31.2 27 31.2 26.2V9.6H38.8L44.5 16.9V24.8H42.3C41.7 22.9 39.9 21.5 37.8 21.5C35.2 21.5 33 23.7 33 26.3C33 28.9 35.1 31.1 37.8 31.1C39.9 31.1 41.7 29.7 42.3 27.8H46C46.8 27.8 47.5 27.1 47.5 26.3V16.4C47.5 16 47.4 15.7 47.2 15.4ZM11.8 28C10.8 28 10 27.2 10 26.2C10 25.2 10.8 24.4 11.8 24.4C12.8 24.4 13.6 25.2 13.6 26.2C13.6 27.2 12.7 28 11.8 28ZM37.9 28C36.9 28 36.1 27.2 36.1 26.2C36.1 25.2 36.9 24.4 37.9 24.4C38.9 24.4 39.7 25.2 39.7 26.2C39.7 27.2 38.8 28 37.9 28Z" fill="black"/>
<path d="M19.9 9.6C20.7 9.6 21.4 8.9 21.4 8.1C21.4 7.3 20.7 6.6 19.9 6.6H5.3C4.5 6.6 3.8 7.3 3.8 8.1C3.8 8.9 4.5 9.6 5.3 9.6H19.9Z" fill="black"/>
<path d="M18.2 14.7C18.2 13.9 17.5 13.2 16.7 13.2H2C1.2 13.2 0.5 13.9 0.5 14.7C0.5 15.5 1.2 16.2 2 16.2H16.7C17.5 16.2 18.2 15.5 18.2 14.7Z" fill="black"/>
</svg>
